<svg width="24" height="24" viewBox="0 0 24 24" fill="none" xmlns="http://www.w3.org/2000/svg">
<path d="M17 4C18.1046 4 19 4.89543 19 6V16C19 18.7614 16.7614 21 14 21C11.2386 21 9 18.7614 9 16V8C9 6.89543 9.89543 6 11 6C12.1046 6 13 6.89543 13 8V15C13 15.5523 12.5523 16 12 16C11.4477 16 11 15.5523 11 15V8C11 8 11 8 11 8C11 8 11 8 11 8C11 6.34315 9.65685 5 8 5C6.34315 5 5 6.34315 5 8V17C5 17 5 17 5 17C5 19.7614 7.23858 22 10 22C12.7614 22 15 19.7614 15 17V6C15 3.79086 13.2091 2 11 2C8.79086 2 7 3.79086 7 6" stroke="black" stroke-width="2" stroke-linecap="round" stroke-linejoin="round"/>
</svg>